<?xml version="1.0" encoding="UTF-8" standalone="no"?>
<svg xmlns:xlink="http://www.w3.org/1999/xlink" viewBox="0 0 500 500" version="1.1" xmlns="http://www.w3.org/2000/svg">
    <rect
            width="500"
            height="300"
            x="0"
            y="0"
            rx="10"
            ry="10"
            style="fill:none;stroke:#ffffff;stroke-width:1;stroke-opacity:1" />
    <text
            x="8"
            y="20"
            data-eval="me.text(neuron.name);"
            style="stroke:none;fill-opacity:1;fill:#ffffff;opacity:1;">name</text>
    <g transform="scale(0.85) translate(-141.5 -340)">
        <g>
            <ellipse stroke-linejoin="round" stroke-linecap="round" rx="24.75" ry="24.69" stroke="#7d797b" cy="447.7" cx="254.5" stroke-width="3.326" fill="#fd5"/>
            <path d="m257.2 447.3c0.0273 0.0545 0.0182 0.1089-0.0273 0.1634l-8.697 10.4h12.03c0.0364 0 0.0682-0.009 0.0956-0.0272 0.0272-0.0181 0.041-0.0454 0.041-0.0817l0.6417-2.819c-0.00003-0.0181 0.0137-0.0408 0.041-0.0681 0.0273-0.0272 0.0682-0.0408 0.1229-0.0408h0.8192c0.1092 0 0.1638 0.0454 0.1638 0.1362v4.875c-0.00002 0.0998-0.0546 0.1498-0.1638 0.1498h-16.67c-0.091-0.00001-0.1365-0.05-0.1365-0.1498v-0.5583c0-0.0363 0.009-0.0635 0.0273-0.0817l9.093-10.91c0.0364-0.0545 0.0364-0.1089 0-0.1634l-8.642-11.68c0-0.0181-0.004-0.0318-0.0137-0.0408-0.009-0.009-0.0137-0.0227-0.0137-0.0408v-0.5855c0-0.0908 0.0455-0.1362 0.1365-0.1362h15.61c0.1092 0.00002 0.1638 0.0454 0.1638 0.1362v4.371c-0.00001 0.0999-0.0546 0.1498-0.1638 0.1498h-0.7646c-0.0546 0.00001-0.0956-0.009-0.1229-0.0273-0.0273-0.0181-0.041-0.0454-0.041-0.0817l-0.8328-3.159c-0.00002-0.0363-0.0137-0.0635-0.041-0.0817-0.0273-0.0181-0.0501-0.0272-0.0683-0.0272h-10.29l7.714 10.38z"/>
            <text xml:space="preserve" transform="scale(1.001 .9991)" line-height="100%" font-size="39.39px" y="343.30188" x="-57.33453" font-family="Verdana" fill="#000000"><tspan font-size="39.39px" line-height="100%" y="343.30188" x="-57.33453" font-family="&apos;Courier New&apos;"/></text>
        </g>
        <g stroke="#7d797b" fill="#c1c1c2">
            <g fill-rule="evenodd" transform="matrix(.6343 0 0 .6331 34.67 166.3)">
                <path d="m386.6 442.2v2.281c51.27-0.00001 76.9 0 89.72 0h11.22 1.41 0.1763v-1.156-1.125s0.0242-0.00001-102.5 0z" stroke-width="3.27"/>
                <path stroke-linejoin="round" d="m464.5 433.2 27.64 10.16-27.64 10.16c4.416-6.001 4.391-14.21 0-20.33z" stroke-width=".8885"/>
            </g>
            <g fill-rule="evenodd" transform="matrix(.6151 0 0 .6331 48.14 166.3)">
                <path d="m850.2 563.8v2.312h37.12 4.625 0.5938 0.0625 0.0312v-1.156-1.156s-0.0266-0.00001-42.44 0z" stroke-width="3.27"/>
                <path stroke-linejoin="round" d="m868 554.7 27.64 10.16-27.64 10.16c4.416-6.001 4.391-14.21 0-20.33z" stroke-width=".8885"/>
            </g>
            <path d="m220.3 468.2v-4.653h-4.63v-1.944h4.63v-4.618h1.973v4.618h4.63v1.944h-4.63v4.653h-1.973z" stroke-width="1px"/>
            <g fill-rule="evenodd" transform="matrix(.6343 0 0 .6331 66.58 90.15)">
                <path d="m142.6 562.9v2.281c56.45 0.00001 84.67 0 98.78 0h12.34 1.562 0.1875 0.0312v-1.125-1.156s-0.004 0.00002-112.9 0z" stroke-width="3.27"/>
                <path stroke-linejoin="round" d="m230.9 553.8 27.64 10.16-27.64 10.16c4.416-6.001 4.391-14.21 0.00001-20.33z" stroke-width=".8885"/>
            </g>
            <path d="m512.4 515.7v-4.653h-4.63v-1.944h4.63v-4.618h1.973v4.618h4.63v1.944h-4.63v4.653h-1.973z" stroke-width="1px"/>
            <path d="m531.1 563.7v-4.653h-4.63v-1.944h4.63v-4.618h1.973v4.618h4.63v1.944h-4.63v4.653h-1.973z" stroke-width="1px"/>
        </g>
        <g>
            <rect y="425" x="347.6" height="43.46" width="134.9" style="stroke:#7d797b;stroke-linecap:round;stroke-linejoin:round;stroke-width:2.5;fill:#cfa"/>
            <path d="m416 454.2c-0.1315 0-0.1973-0.0838-0.1973-0.2514l0.0877-0.3498c0.0292-0.0947 0.0913-0.1421 0.1863-0.1421 0.6064 0 1.096-0.0455 1.469-0.1366 0.3726-0.0911 0.6138-0.3042 0.7234-0.6394l3.08-12.34c0.0439-0.1093 0.0658-0.2186 0.0658-0.3279-0.00001-0.2405-0.5918-0.3607-1.776-0.3607-0.0439 0.00001-0.084-0.0273-0.1206-0.082-0.0365-0.0547-0.0548-0.1111-0.0548-0.1694l0.0877-0.3498c0.0146-0.0947 0.0986-0.1421 0.2521-0.1421h5.611c0.0511 0.00001 0.0932 0.0237 0.126 0.071 0.0329 0.0474 0.0493 0.1002 0.0494 0.1585l-0.0877 0.3498c-0.0219 0.1093-0.084 0.164-0.1863 0.164-0.5992 0.00001-1.085 0.0455-1.458 0.1366-0.3726 0.0911-0.6101 0.3042-0.7124 0.6394l-1.841 7.389 8.866-6.919c0.0365-0.0729 0.1078-0.1548 0.2137-0.246 0.1059-0.0911 0.19-0.1803 0.2521-0.2678 0.0621-0.0874 0.0931-0.1967 0.0932-0.3279-0.00003-0.2696-0.2156-0.4044-0.6466-0.4044-0.0512 0.00001-0.095-0.0273-0.1315-0.082-0.0366-0.0547-0.0548-0.1111-0.0548-0.1694l0.0877-0.3498c0.0146-0.0947 0.0986-0.1421 0.2521-0.1421h4.044c0.0511 0.00001 0.0931 0.0237 0.126 0.071 0.0329 0.0474 0.0493 0.1002 0.0494 0.1585l-0.0877 0.3498c-0.0219 0.1093-0.084 0.164-0.1863 0.164-1.03 0.00001-2.188 0.4992-3.474 1.498-0.00002 0.00001-0.011 0.004-0.0329 0.011-0.022 0.007-0.0402 0.0182-0.0548 0.0327l-4.669 3.651 3.321 7.903c0.1973 0.3279 0.4055 0.5283 0.6247 0.6012s0.5553 0.1093 1.008 0.1093c0.0584 0 0.1078 0.0273 0.148 0.082s0.0603 0.1038 0.0603 0.1476l-0.0877 0.3607c-0.0365 0.102-0.1279 0.153-0.274 0.153h-4.822c-0.1388 0-0.2082-0.0838-0.2082-0.2514l0.0877-0.3498c0.0438-0.0947 0.1059-0.1421 0.1863-0.1421 0.8548 0 1.282-0.215 1.282-0.6449-0.00002-0.0437-0.002-0.0802-0.006-0.1093-0.004-0.0292-0.009-0.0583-0.0165-0.0874l-2.784-6.613-3.398 2.623-1.03 4.143c-0.0292 0.1457-0.0439 0.2587-0.0439 0.3388 0 0.2332 0.5845 0.3498 1.754 0.3498 0.0584 0 0.1059 0.0273 0.1425 0.082 0.0365 0.0547 0.0548 0.1038 0.0548 0.1476l-0.0877 0.3607c-0.0365 0.102-0.1279 0.153-0.274 0.153h-5.59zm17.31 1.914c-0.0161 0-0.0339-0.0113-0.0532-0.0337-0.0194-0.0225-0.029-0.0434-0.029-0.0627l0.0435-0.1591c0.01-0.045 0.0355-0.0675 0.0774-0.0675 0.2095-0.00001 0.3546-0.0177 0.4352-0.0531 0.0806-0.0353 0.1434-0.1334 0.1886-0.2942l1.117-4.446c0-0.01 0.0121-0.0772 0.0363-0.2025 0.0242-0.1254 0.0363-0.2186 0.0363-0.2797 0-0.1222-0.0226-0.225-0.0677-0.3086s-0.1225-0.1254-0.2321-0.1254c-0.1128 0.00001-0.2119 0.0474-0.2974 0.1423-0.0854 0.0948-0.1547 0.2058-0.2079 0.3327-0.0532 0.127-0.1023 0.2749-0.1475 0.4437-0.0451 0.1688-0.0774 0.2934-0.0967 0.3737-0.0161 0.0482-0.0403 0.0723-0.0725 0.0723h-0.116c-0.0484 0.00001-0.0725-0.0337-0.0725-0.1013 0.0774-0.3118 0.1475-0.5602 0.2103-0.7451 0.0629-0.1848 0.1612-0.3568 0.2949-0.516 0.1338-0.1591 0.3086-0.2387 0.5246-0.2387 0.2256 0 0.4215 0.0659 0.5875 0.1977s0.2651 0.3086 0.2974 0.5305c0.4094-0.4854 0.8317-0.7282 1.267-0.7282 0.274 0 0.5069 0.0739 0.6987 0.2218s0.336 0.3384 0.4328 0.5715c0.0967 0.2331 0.145 0.4846 0.1451 0.7547-0.00001 0.4147-0.1056 0.8495-0.3167 1.304-0.2111 0.4549-0.498 0.8351-0.8607 1.14-0.3626 0.3054-0.7551 0.4581-1.177 0.4581-0.1934 0-0.3675-0.0571-0.5222-0.1712s-0.2724-0.2644-0.353-0.4509l-0.4545 1.808c-0.0194 0.0611-0.029 0.1173-0.029 0.1688 0 0.0932 0.2144 0.1398 0.6431 0.1398 0.0226-0.00001 0.0419 0.0113 0.058 0.0337 0.0161 0.0225 0.0242 0.0466 0.0242 0.0723l-0.0435 0.1591c-0.006 0.0386-0.0419 0.0578-0.1064 0.0578h-1.862zm2.664-2.054c0.2546 0 0.4876-0.1149 0.6987-0.3448s0.3868-0.5144 0.527-0.8536 0.2466-0.6792 0.3191-1.02 0.1088-0.6285 0.1088-0.8632c0-0.2379-0.0475-0.4469-0.1426-0.6269s-0.2522-0.27-0.4714-0.27c-0.2385 0.00001-0.4666 0.0892-0.6842 0.2676s-0.4118 0.3946-0.5826 0.6486v0.0145c0 0.006-0.004 0.0129-0.01 0.0193l-0.5367 2.151c0.0387 0.2379 0.1233 0.4437 0.2538 0.6173 0.1306 0.1736 0.3038 0.2604 0.5198 0.2604zm6.807 0.3585c-1.052 0-1.876-0.3917-2.471-1.175-0.5955-0.7834-0.8932-1.718-0.8932-2.804 0-1.049 0.2576-2.044 0.7727-2.984s1.218-1.696 2.11-2.268c0.8914-0.572 1.86-0.858 2.904-0.858 0.6357 0.00001 1.184 0.1676 1.644 0.5028 0.4603 0.3352 0.6905 0.8016 0.6905 1.399-0.00001 1.217-0.6028 1.991-1.808 2.323-1.206 0.3316-2.66 0.4974-4.362 0.4974h-0.0439c-0.2192 0.8817-0.3398 1.651-0.3617 2.306 0 0.6704 0.1553 1.259 0.4658 1.765 0.3105 0.5065 0.7763 0.7597 1.397 0.7597 0.8841 0.00001 1.732-0.2113 2.543-0.634 0.811-0.4226 1.483-0.9947 2.017-1.716 0.0146-0.0292 0.0584-0.0437 0.1315-0.0437 0.0804 0 0.1534 0.0364 0.2192 0.1093s0.0986 0.1421 0.0986 0.2077c-0.00001 0.0437-0.007 0.0729-0.0219 0.0874-0.38 0.5174-0.833 0.9656-1.359 1.344-0.5261 0.3789-1.103 0.6704-1.732 0.8745-0.6284 0.204-1.275 0.306-1.94 0.306zm-1.326-5.903c0.8768 0.00001 1.68-0.0382 2.411-0.1148 0.7306-0.0765 1.396-0.2842 1.995-0.623 0.5991-0.3388 0.8987-0.8544 0.8987-1.547 0-0.2623-0.0749-0.4992-0.2247-0.7105s-0.3452-0.3735-0.5863-0.4864-0.5042-0.1694-0.7891-0.1694c-0.9426 0.00002-1.726 0.3553-2.351 1.066-0.6247 0.7105-1.076 1.572-1.354 2.585zm13.08 11.26c-1.067-0.9765-1.85-2.172-2.351-3.585-0.5005-1.414-0.7508-2.926-0.7508-4.536 0-1.348 0.1461-2.696 0.4384-4.044 0.2922-1.348 0.7233-2.651 1.293-3.908 0.5699-1.257 1.282-2.423 2.137-3.498 0.8549-1.075 1.827-1.991 2.915-2.749 0.0292-0.0291 0.0658-0.0437 0.1096-0.0437h0.2192c0.1096 0.00002 0.1644 0.0583 0.1644 0.1749-0.00001 0.0729-0.0256 0.1202-0.0767 0.1421-0.9937 0.8235-1.867 1.798-2.619 2.924-0.7526 1.126-1.375 2.345-1.869 3.656-0.4932 1.312-0.8622 2.649-1.107 4.012s-0.3672 2.704-0.3672 4.022c0 3.061 0.7635 5.447 2.291 7.16 0.0439 0.0437 0.0658 0.0911 0.0658 0.1421-0.00001 0.1166-0.0548 0.1749-0.1644 0.1749h-0.2192c-0.0439-0.00001-0.0804-0.0145-0.1096-0.0437zm3.946-7.367c-0.00001-0.1676 0.0292-0.3826 0.0877-0.6449l1.611-6.471h-2.378c-0.0439 0-0.084-0.0273-0.1206-0.082-0.0365-0.0547-0.0548-0.1111-0.0548-0.1694l0.0877-0.3498c0.0292-0.0947 0.0913-0.1421 0.1863-0.1421h2.466l0.9206-3.651c0.0584-0.204 0.1662-0.3698 0.3233-0.4974 0.1571-0.1275 0.3416-0.1913 0.5535-0.1913 0.168 0.00002 0.3142 0.0528 0.4384 0.1585s0.1863 0.246 0.1863 0.4208c0 0.0948-0.007 0.1567-0.0219 0.1858l-0.8987 3.574h2.334c0.0511 0.00001 0.0931 0.0237 0.126 0.0711s0.0493 0.1002 0.0494 0.1585l-0.0877 0.3607c-0.00001 0.102-0.0584 0.153-0.1754 0.153h-2.422l-1.644 6.537c-0.1023 0.4226-0.1534 0.7797-0.1534 1.071 0 0.6558 0.2228 0.9838 0.6685 0.9838 0.4603 0.00001 0.8823-0.1548 1.266-0.4646 0.3836-0.3097 0.7106-0.6904 0.9809-1.142 0.2703-0.4518 0.4968-0.9145 0.6795-1.388 0.0292-0.0583 0.0731-0.0874 0.1315-0.0874h0.263c0.1096 0 0.1644 0.0729 0.1644 0.2186-0.3434 0.8963-0.8147 1.687-1.414 2.372-0.5991 0.685-1.304 1.027-2.115 1.027-0.5772 0-1.061-0.1913-1.452-0.5739-0.3909-0.3826-0.5864-0.8617-0.5864-1.437zm7.08 7.411c-0.1023-0.00001-0.1534-0.0583-0.1534-0.1749 0-0.0802 0.0147-0.1275 0.0439-0.1421 1.008-0.8307 1.892-1.818 2.652-2.962 0.7599-1.144 1.383-2.359 1.869-3.645 0.4859-1.286 0.8494-2.605 1.09-3.957 0.2411-1.352 0.3617-2.702 0.3617-4.05-0.00002-0.8672-0.0731-1.731-0.2192-2.591-0.1461-0.8599-0.3909-1.681-0.7343-2.465-0.3434-0.7834-0.7891-1.485-1.337-2.104-0.0292-0.0583-0.0439-0.1056-0.0439-0.1421 0-0.1166 0.0511-0.1749 0.1534-0.1749h0.2192c0.0365 0.00002 0.0694 0.0146 0.0986 0.0437 0.716 0.6631 1.306 1.432 1.77 2.306 0.464 0.8745 0.8001 1.8 1.008 2.776 0.2082 0.9765 0.3124 1.993 0.3124 3.05 0 1.8-0.2594 3.596-0.7781 5.389-0.5188 1.793-1.288 3.454-2.307 4.984s-2.249 2.802-3.688 3.815c-0.0292 0.0292-0.0621 0.0437-0.0986 0.0437h-0.2192z"/>
            <g fill-rule="evenodd" transform="matrix(.6343 0 0 .6331 34.67 166.3)" stroke="#7d797b" fill="#c1c1c2">
                <path d="m435.2 563.2v2.312h47.72 5.969 0.75 0.0937v-1.156-1.156h-54.53z" stroke-width="3.27"/>
                <path stroke-linejoin="round" d="m465.2 554.2 27.64 10.16-27.64 10.16c4.416-6.001 4.391-14.21 0-20.33z" stroke-width=".8885"/>
            </g>
            <rect y="500.5" x="347.6" height="43.46" width="134.9" style="stroke:#7d797b;stroke-linecap:round;stroke-linejoin:round;stroke-width:2.5;fill:#afe9dd"/>
            <text xml:space="preserve" transform="scale(1.001 .9991)" line-height="125%" font-size="39.39px" y="254.15955" x="233.20708" font-family="Verdana" fill="#000000"><tspan x="233.20708" y="254.15955"/></text>
        </g>
        <g transform="matrix(.3999 0 0 .3988 173.3 382.4)">
            <path d="m574.4 365.6c-0.2656 0-0.3984-0.1697-0.3984-0.5091l0.1771-0.7083c0.059-0.1918 0.1845-0.2878 0.3763-0.2878 1.225 0 2.214-0.0922 2.966-0.2767 0.7526-0.1845 1.24-0.6161 1.461-1.295l6.22-24.99c0.0885-0.2213 0.1328-0.4427 0.1328-0.6641-0.00001-0.487-1.195-0.7304-3.586-0.7305-0.0886 0.00002-0.1697-0.0553-0.2435-0.166-0.0738-0.1106-0.1107-0.225-0.1107-0.3431l0.1771-0.7083c0.0295-0.1918 0.1992-0.2877 0.5091-0.2878h11.33c0.1033 0.00003 0.1881 0.048 0.2546 0.1439 0.0664 0.0959 0.0996 0.2029 0.0996 0.321l-0.1771 0.7083c-0.0443 0.2214-0.1697 0.3321-0.3763 0.332-1.21 0.00002-2.191 0.0923-2.944 0.2767-0.7526 0.1845-1.232 0.6161-1.439 1.295l-3.719 14.96 17.91-14.01c0.0738-0.1475 0.2176-0.3136 0.4316-0.498 0.2139-0.1844 0.3836-0.3652 0.5091-0.5423 0.1254-0.1771 0.1881-0.3984 0.1882-0.6641-0.00004-0.546-0.4354-0.819-1.306-0.819-0.1033 0.00002-0.1919-0.0553-0.2656-0.166-0.0738-0.1106-0.1107-0.225-0.1107-0.3431l0.1771-0.7083c0.0295-0.1918 0.1992-0.2877 0.5091-0.2878h8.168c0.1033 0.00003 0.1881 0.048 0.2546 0.1439 0.0664 0.0959 0.0996 0.2029 0.0996 0.321l-0.1771 0.7083c-0.0443 0.2214-0.1697 0.3321-0.3763 0.332-2.081 0.00002-4.42 1.011-7.017 3.033-0.00004 0.00002-0.0222 0.007-0.0664 0.0221-0.0443 0.0148-0.0812 0.0369-0.1107 0.0664l-9.43 7.393 6.707 16c0.3984 0.6641 0.819 1.07 1.262 1.217 0.4427 0.1476 1.122 0.2214 2.036 0.2214 0.118 0 0.2176 0.0553 0.2988 0.166 0.0811 0.1107 0.1217 0.2103 0.1218 0.2988l-0.1771 0.7305c-0.0738 0.2066-0.2583 0.3099-0.5534 0.3099h-9.74c-0.2804 0-0.4206-0.1697-0.4206-0.5091l0.1771-0.7083c0.0885-0.1918 0.214-0.2878 0.3763-0.2878 1.727 0 2.59-0.4353 2.59-1.306-0.00002-0.0885-0.004-0.1623-0.0111-0.2214-0.007-0.059-0.0185-0.118-0.0332-0.1771l-5.622-13.39-6.862 5.312-2.081 8.389c-0.059 0.2952-0.0886 0.5239-0.0886 0.6862-0.00001 0.4722 1.181 0.7083 3.542 0.7083 0.118 0 0.214 0.0553 0.2878 0.166s0.1107 0.2103 0.1107 0.2988l-0.1771 0.7305c-0.0738 0.2066-0.2583 0.3099-0.5534 0.3099h-11.29zm36.96-1.416c0-0.2865 0.0456-0.5404 0.1367-0.7617l1.621-4.326c0.1628-0.4362 0.2539-0.8431 0.2734-1.221-0.00001-0.4101-0.1595-0.6152-0.4785-0.6152-0.5208 0.00001-0.944 0.262-1.27 0.7861-0.3255 0.5241-0.5827 1.134-0.7715 1.831-0.0326 0.0977-0.0781 0.1465-0.1367 0.1465h-0.2344c-0.0976 0.00001-0.1465-0.0684-0.1465-0.2051 0.2018-0.7878 0.5192-1.491 0.9522-2.109 0.4329-0.6185 0.9814-0.9277 1.646-0.9277 0.4622 0.00001 0.848 0.1546 1.157 0.4639 0.3092 0.3092 0.4639 0.695 0.4639 1.157-0.00001 0.28-0.0456 0.5339-0.1367 0.7617l-1.621 4.316c-0.1888 0.5078-0.2832 0.9147-0.2832 1.221 0 0.4102 0.1628 0.6152 0.4883 0.6152 0.3646 0 0.682-0.1416 0.9522-0.4248s0.4915-0.6185 0.6641-1.006c0.1725-0.3874 0.3109-0.7829 0.415-1.187 0.0456-0.0911 0.0944-0.1367 0.1465-0.1367h0.2344c0.0977 0.00001 0.1465 0.0651 0.1465 0.1953-0.1107 0.4753-0.28 0.9424-0.5078 1.401-0.2279 0.459-0.5225 0.8464-0.8838 1.162-0.3613 0.3158-0.7731 0.4736-1.235 0.4736-0.4557 0-0.835-0.1546-1.138-0.4639-0.3027-0.3092-0.4541-0.6917-0.4541-1.147zm2.275-10.7c0-0.2734 0.1058-0.5127 0.3174-0.7178s0.4541-0.3076 0.7275-0.3076c0.2018 0.00002 0.3678 0.0619 0.498 0.1856s0.1953 0.2897 0.1953 0.498c-0.00001 0.2669-0.1074 0.5046-0.3223 0.7129-0.2148 0.2083-0.4525 0.3125-0.7129 0.3125-0.1888 0.00001-0.3532-0.0635-0.4932-0.1904s-0.21-0.2913-0.21-0.4932z"/>
            <g transform="matrix(.5644 0 0 .5644 521.3 171.3)">
                <g transform="matrix(3.525 0 0 2.983 -759.1 185.4)">
                    <path d="m270.4 55.15h-1.982v-24.76c-0.00001-1.996 0.4079-3.5 1.224-4.512 0.8158-1.012 1.739-1.518 2.769-1.518 0.6107 0.000024 1.078 0.1481 1.401 0.4443 0.3236 0.2962 0.4853 0.6449 0.4854 1.046-0.00002 0.3646-0.1162 0.6654-0.3486 0.9023-0.2324 0.237-0.5173 0.3555-0.8545 0.3555-0.2734 0.000021-0.5332-0.06834-0.7793-0.2051-0.1641-0.09113-0.3532-0.303-0.5674-0.6357s-0.4261-0.499-0.6357-0.499c-0.155 0.000022-0.2962 0.05471-0.4238 0.1641-0.0912 0.07294-0.155 0.196-0.1914 0.3691-0.0638 0.3008-0.0957 0.9343-0.0957 1.9v26.95z"/>
                    <path d="m268.4 32.05h1.982v24.76c-0.00001 1.996-0.4079 3.5-1.224 4.512-0.8158 1.012-1.739 1.518-2.769 1.518-0.6107-0.000007-1.078-0.1481-1.401-0.4443-0.3236-0.2962-0.4854-0.6449-0.4854-1.046 0-0.3646 0.1162-0.6654 0.3486-0.9023 0.2324-0.237 0.5127-0.3555 0.8408-0.3555 0.2826-0.000004 0.5514 0.07291 0.8066 0.2188 0.1641 0.09114 0.3509 0.3008 0.5606 0.6289 0.2096 0.3281 0.4193 0.4922 0.6289 0.4922 0.1549-0.000006 0.2962-0.05469 0.4238-0.1641 0.0911-0.06381 0.1549-0.1914 0.1914-0.3828 0.0638-0.2917 0.0957-0.9206 0.0957-1.887v-26.95z"/>
                </g>
            </g>
            <path d="m648.8 362.1c-2.125 0-3.789-0.7932-4.992-2.38-1.203-1.586-1.804-3.479-1.804-5.678 0-2.125 0.5202-4.139 1.561-6.043 1.04-1.904 2.461-3.435 4.261-4.593s3.756-1.738 5.866-1.738c1.284 0.00002 2.391 0.3394 3.32 1.018 0.9297 0.6788 1.395 1.623 1.395 2.833-0.00001 2.464-1.217 4.032-3.652 4.704-2.435 0.6714-5.372 1.007-8.81 1.007h-0.0886c-0.4427 1.786-0.6862 3.342-0.7305 4.671 0 1.358 0.3136 2.549 0.9408 3.575s1.568 1.538 2.822 1.538c1.786 0 3.497-0.428 5.135-1.284 1.638-0.8559 2.996-2.014 4.073-3.475 0.0295-0.059 0.118-0.0885 0.2656-0.0885 0.1623 0.00001 0.3099 0.0738 0.4427 0.2214s0.1992 0.2878 0.1992 0.4206c-0.00002 0.0885-0.0148 0.1476-0.0443 0.1771-0.7674 1.048-1.682 1.955-2.745 2.723-1.063 0.7674-2.228 1.358-3.497 1.771-1.269 0.4132-2.575 0.6198-3.918 0.6198zm-2.678-11.95c1.771 0.00001 3.394-0.0775 4.87-0.2324s2.819-0.5755 4.029-1.262c1.21-0.6862 1.815-1.73 1.815-3.132-0.00002-0.5312-0.1513-1.011-0.4538-1.439-0.3025-0.4279-0.6973-0.7563-1.184-0.985-0.487-0.2287-1.018-0.3431-1.594-0.3431-1.904 0.00002-3.486 0.7194-4.748 2.158s-2.173 3.184-2.734 5.235zm26.41 22.8c-2.155-1.977-3.737-4.398-4.748-7.26-1.011-2.863-1.516-5.925-1.516-9.186-0.00001-2.73 0.2951-5.46 0.8854-8.19s1.461-5.368 2.612-7.913c1.151-2.546 2.59-4.907 4.316-7.083 1.727-2.177 3.689-4.032 5.888-5.567 0.059-0.059 0.1328-0.0885 0.2214-0.0885h0.4427c0.2213 0.00003 0.332 0.1181 0.332 0.3542-0.00002 0.1476-0.0517 0.2435-0.1549 0.2878-2.007 1.668-3.77 3.641-5.29 5.921s-2.778 4.748-3.774 7.404c-0.9961 2.656-1.741 5.364-2.236 8.124-0.4944 2.76-0.7416 5.475-0.7415 8.146-0.00001 6.198 1.542 11.03 4.626 14.5 0.0885 0.0885 0.1328 0.1844 0.1328 0.2878-0.00001 0.2361-0.1107 0.3542-0.332 0.3542h-0.4427c-0.0885-0.00001-0.1623-0.0295-0.2214-0.0885zm12.13-11.93c-0.00001-0.0885 0.0295-0.2509 0.0885-0.487l4.759-15.78h-4.073c-1.033 0.00001-1.929 0.273-2.689 0.819s-1.435 1.199-2.025 1.959c-0.5903 0.76-0.9223 1.147-0.9961 1.162h-0.5534c-0.2066 0.00001-0.3099-0.118-0.3099-0.3542 0-0.059 0.0148-0.118 0.0443-0.1771 0.974-1.712 2.014-3.147 3.121-4.305s2.376-1.738 3.807-1.738h13.61c0.3394 0.00002 0.605 0.0959 0.7969 0.2878 0.1918 0.1919 0.2877 0.4427 0.2878 0.7526-0.00002 0.3984-0.1587 0.7637-0.4759 1.096-0.3173 0.332-0.6752 0.4981-1.074 0.498h-8.102l-3.121 15.92c-0.0885 0.4132-0.3025 0.7674-0.6419 1.062-0.3394 0.2951-0.7305 0.4427-1.173 0.4427-0.3542 0-0.6567-0.1144-0.9076-0.3431s-0.3763-0.498-0.3763-0.8079zm13.41 12.02c-0.2066-0.00001-0.3099-0.1181-0.3099-0.3542 0-0.1623 0.0295-0.2583 0.0885-0.2878 2.036-1.682 3.822-3.682 5.357-5.999s2.793-4.778 3.774-7.382c0.9813-2.605 1.715-5.276 2.202-8.013s0.7305-5.471 0.7305-8.201c-0.00001-1.756-0.1476-3.505-0.4427-5.246-0.2952-1.741-0.7895-3.405-1.483-4.992-0.6936-1.586-1.594-3.007-2.701-4.261-0.059-0.118-0.0886-0.2139-0.0885-0.2878-0.00001-0.2361 0.1033-0.3541 0.3099-0.3542h0.4427c0.0738 0.00003 0.1402 0.0295 0.1992 0.0885 1.446 1.343 2.638 2.9 3.575 4.671s1.616 3.645 2.036 5.622c0.4206 1.977 0.6308 4.036 0.6309 6.176-0.00002 3.645-0.5239 7.283-1.572 10.91-1.048 3.63-2.601 6.995-4.66 10.09-2.059 3.099-4.541 5.674-7.449 7.725-0.059 0.059-0.1254 0.0885-0.1992 0.0885h-0.4427zm23.88-10.93c-1.254 0-2.321-0.3394-3.199-1.018-0.878-0.6788-1.538-1.557-1.981-2.634-0.4427-1.077-0.6641-2.228-0.6641-3.453-0.00001-1.417 0.2804-2.907 0.8411-4.471 0.5608-1.564 1.332-3.014 2.313-4.35 0.9813-1.335 2.136-2.42 3.464-3.254 1.328-0.8337 2.715-1.251 4.161-1.251 0.8706 0.00002 1.66 0.262 2.368 0.7858 0.7083 0.5239 1.247 1.214 1.616 2.07l2.59-10.29c0.1476-0.664 0.2213-1.07 0.2214-1.217-0.00002-0.546-0.9666-0.819-2.9-0.819-0.0886 0.00002-0.1697-0.0553-0.2435-0.166-0.0738-0.1106-0.1107-0.225-0.1107-0.3431l0.1771-0.7083c0.059-0.1918 0.1844-0.2877 0.3763-0.2878l5.932-0.487c0.2951 0.00003 0.4427 0.1476 0.4427 0.4427l-6.53 26.16c-0.00002 0.1918-0.0517 0.5608-0.155 1.107-0.1033 0.546-0.155 0.9149-0.155 1.107-0.00001 1.328 0.4574 1.992 1.372 1.992 0.664 0 1.225-0.3431 1.682-1.029 0.4574-0.6862 0.7968-1.391 1.018-2.114 0.2213-0.7231 0.4648-1.653 0.7305-2.789 0.0738-0.2066 0.1844-0.3099 0.332-0.3099h0.5312c0.0885 0.00001 0.1623 0.0443 0.2214 0.1328 0.059 0.0885 0.0885 0.1918 0.0885 0.3099-0.487 2.051-1.048 3.711-1.682 4.98-0.6346 1.269-1.645 1.904-3.033 1.904-1.018 0-1.907-0.3025-2.667-0.9076-0.76-0.605-1.214-1.417-1.361-2.435-0.7969 0.9592-1.697 1.756-2.701 2.391-1.003 0.6346-2.036 0.9518-3.099 0.9518zm0.0885-1.085c0.7378 0 1.472-0.2103 2.202-0.6309 0.7305-0.4206 1.398-0.9555 2.003-1.605 0.605-0.6493 1.122-1.306 1.549-1.97 0.0295 0 0.0443-0.0443 0.0443-0.1328l2.501-9.895c-0.1919-1.107-0.5792-2.055-1.162-2.844-0.5829-0.7895-1.376-1.184-2.38-1.184-1.52 0.00002-2.855 0.8485-4.007 2.546-1.151 1.697-2.04 3.682-2.667 5.954-0.6272 2.273-0.9408 4.154-0.9408 5.645-0.00001 1.048 0.2324 1.996 0.6973 2.844 0.4648 0.8485 1.184 1.273 2.158 1.273zm22.2 0c-0.00001-0.0885 0.0295-0.2509 0.0885-0.487l4.759-15.78h-4.073c-1.033 0.00001-1.929 0.273-2.689 0.819s-1.435 1.199-2.025 1.959c-0.5903 0.76-0.9223 1.147-0.9961 1.162h-0.5534c-0.2066 0.00001-0.3099-0.118-0.3099-0.3542 0-0.059 0.0148-0.118 0.0443-0.1771 0.974-1.712 2.014-3.147 3.121-4.305s2.376-1.738 3.807-1.738h13.61c0.3394 0.00002 0.605 0.0959 0.7969 0.2878 0.1918 0.1919 0.2877 0.4427 0.2878 0.7526-0.00002 0.3984-0.1587 0.7637-0.4759 1.096-0.3173 0.332-0.6752 0.4981-1.074 0.498h-8.102l-3.121 15.92c-0.0886 0.4132-0.3025 0.7674-0.6419 1.062-0.3394 0.2951-0.7305 0.4427-1.173 0.4427-0.3542 0-0.6567-0.1144-0.9076-0.3431s-0.3763-0.498-0.3763-0.8079z"/>
        </g>
        <g stroke="#7d797b">
            <path d="m309.9 483.1c-0.00001 58.24 0 87.37 0 101.9v12.74 1.582 0.1825 0.0304h0.7334 0.7334s-0.00001 0.0132 0-116.5h-1.467z" fill-rule="evenodd" stroke-width="2.3" fill="#c1c1c2"/>
            <g fill-rule="evenodd" transform="matrix(.6343 0 0 .6331 34.67 166.3)" fill="#c1c1c2">
                <path d="m434.3 682.6v2.281c27.27 0.00001 40.9 0 47.72 0h5.969 0.75 0.0937v-1.125-1.156s0.0129 0.00001-54.53 0z" stroke-width="3.27"/>
                <path stroke-linejoin="round" d="m464.2 673.6 27.64 10.16-27.64 10.16c4.416-6.001 4.391-14.21 0-20.33z" stroke-width=".8885"/>
            </g>
            <rect  y="575.5" x="347.6" height="43.46" width="134.9"  style="stroke:#7d797b;stroke-linecap:round;stroke-linejoin:round;stroke-width:2.5;fill:#ff7f2a"/>
        </g>
        <path d="m371.6 442.3c-0.00002 0.8912-0.1557 1.717-0.4671 2.478-0.3114 0.7606-0.7469 1.42-1.306 1.978-0.695 0.6932-1.516 1.213-2.464 1.56-0.9477 0.3466-2.144 0.5198-3.588 0.5198h-2.681v7.494h-2.681v-20.11h5.47c1.209 0.00002 2.234 0.1013 3.073 0.3038 0.8394 0.2026 1.584 0.5199 2.234 0.9519 0.7672 0.5131 1.361 1.152 1.78 1.917 0.4197 0.7652 0.6295 1.733 0.6296 2.903zm-2.789 0.0675c-0.00002-0.6931-0.1219-1.296-0.3655-1.809-0.2437-0.5131-0.6138-0.9316-1.11-1.256-0.4332-0.279-0.9274-0.4793-1.482-0.6009-0.5551-0.1215-1.257-0.1823-2.105-0.1823h-2.654v8.034h2.261c1.083 0.00001 1.963-0.0968 2.64-0.2903 0.6769-0.1935 1.228-0.5018 1.652-0.9249 0.4242-0.4321 0.7243-0.8867 0.9003-1.364 0.176-0.4771 0.264-1.013 0.264-1.607z"/>
        <path d="m367.6 531.6h-7.961v-2.052h2.64v-16h-2.64v-2.052h7.961v2.052h-2.64v16h2.64v2.052z"/>
        <g transform="matrix(.4263 0 0 .4252 130.3 383.5)">
            <path d="m663.3 522.3c-0.3281 0-0.4922-0.2096-0.4922-0.6289l0.2188-0.875c0.0729-0.237 0.2279-0.3555 0.4648-0.3555 1.513 0 2.734-0.1139 3.664-0.3418 0.9297-0.2279 1.531-0.7611 1.805-1.6l7.684-30.87c0.1094-0.2734 0.164-0.5468 0.1641-0.8203-0.00002-0.6015-1.477-0.9023-4.43-0.9023-0.1094 0.00003-0.2096-0.0683-0.3008-0.2051-0.0912-0.1367-0.1367-0.278-0.1367-0.4238l0.2188-0.875c0.0364-0.2369 0.2461-0.3554 0.6289-0.3555h14c0.1276 0.00004 0.2324 0.0593 0.3144 0.1777 0.082 0.1185 0.123 0.2507 0.123 0.3965l-0.2188 0.875c-0.0547 0.2735-0.2097 0.4102-0.4648 0.4102-1.495 0.00003-2.707 0.114-3.637 0.3418-0.9297 0.2279-1.522 0.7611-1.777 1.6l-4.594 18.48 22.12-17.31c0.0911-0.1823 0.2688-0.3873 0.5332-0.6152 0.2643-0.2278 0.4739-0.4511 0.6289-0.6699 0.1549-0.2187 0.2324-0.4922 0.2324-0.8203-0.00003-0.6744-0.5378-1.012-1.613-1.012-0.1276 0.00003-0.237-0.0683-0.3281-0.2051-0.0912-0.1367-0.1368-0.278-0.1367-0.4238l0.2188-0.875c0.0364-0.2369 0.2461-0.3554 0.6289-0.3555h10.09c0.1276 0.00004 0.2324 0.0593 0.3144 0.1777 0.082 0.1185 0.123 0.2507 0.123 0.3965l-0.2188 0.875c-0.0547 0.2735-0.2097 0.4102-0.4648 0.4102-2.57 0.00003-5.46 1.249-8.668 3.746-0.00004 0.00003-0.0274 0.009-0.082 0.0273-0.0547 0.0183-0.1003 0.0456-0.1367 0.082l-11.65 9.133 8.285 19.77c0.4922 0.8203 1.012 1.322 1.559 1.504 0.5468 0.1823 1.385 0.2734 2.516 0.2734 0.1458 0 0.2688 0.0684 0.3692 0.2051 0.1002 0.1367 0.1504 0.2598 0.1504 0.3691l-0.2188 0.9023c-0.0912 0.2552-0.319 0.3828-0.6836 0.3828h-12.03c-0.3464 0-0.5196-0.2096-0.5195-0.6289l0.2188-0.875c0.1094-0.237 0.2643-0.3555 0.4648-0.3555 2.133 0 3.199-0.5378 3.199-1.613-0.00003-0.1094-0.005-0.2005-0.0137-0.2734-0.009-0.0729-0.0228-0.1458-0.041-0.2188l-6.945-16.54-8.477 6.562-2.57 10.36c-0.0729 0.3646-0.1094 0.6471-0.1094 0.8476-0.00001 0.5833 1.458 0.875 4.375 0.875 0.1458 0 0.2643 0.0684 0.3555 0.2051 0.0911 0.1367 0.1367 0.2598 0.1367 0.3691l-0.2188 0.9023c-0.0912 0.2552-0.319 0.3828-0.6836 0.3828h-13.95zm47.48 0.2148c-0.6087 0-1.126-0.1647-1.552-0.4941-0.4261-0.3294-0.7466-0.7555-0.9614-1.278-0.2148-0.5228-0.3223-1.081-0.3223-1.676 0-0.6875 0.1361-1.411 0.4082-2.17 0.2721-0.7591 0.6463-1.463 1.123-2.111 0.4762-0.6481 1.037-1.174 1.681-1.579 0.6445-0.4046 1.318-0.6069 2.02-0.6069 0.4225 0.00001 0.8057 0.1271 1.149 0.3814 0.3437 0.2542 0.6051 0.589 0.7842 1.004l1.257-4.995c0.0716-0.3223 0.1074-0.5192 0.1074-0.5908-0.00001-0.265-0.4691-0.3974-1.407-0.3975-0.043 0.00002-0.0824-0.0268-0.1182-0.0806-0.0358-0.0537-0.0537-0.1092-0.0537-0.1665l0.0859-0.3438c0.0286-0.0931 0.0895-0.1396 0.1826-0.1396l2.879-0.2363c0.1432 0.00001 0.2148 0.0716 0.2148 0.2148l-3.169 12.7c-0.00001 0.0931-0.0251 0.2721-0.0752 0.5371s-0.0752 0.444-0.0752 0.5371c-0.00001 0.6445 0.222 0.9668 0.666 0.9668 0.3223 0 0.5944-0.1665 0.8164-0.4995s0.3867-0.675 0.4941-1.026c0.1074-0.3509 0.2256-0.8021 0.3545-1.354 0.0358-0.1003 0.0895-0.1504 0.1611-0.1504h0.2578c0.043 0 0.0788 0.0215 0.1074 0.0645s0.043 0.0931 0.043 0.1504c-0.2363 0.9954-0.5085 1.801-0.8164 2.417-0.308 0.6159-0.7985 0.9238-1.472 0.9238-0.4942 0-0.9256-0.1468-1.294-0.4404-0.3688-0.2936-0.589-0.6875-0.6606-1.182-0.3867 0.4655-0.8236 0.8522-1.311 1.16-0.487 0.3079-0.9883 0.4619-1.504 0.4619zm0.043-0.5264c0.3581 0 0.7144-0.102 1.069-0.3062 0.3545-0.2041 0.6785-0.4637 0.9722-0.7788 0.2936-0.3151 0.5443-0.6338 0.752-0.956 0.0143 0 0.0215-0.0215 0.0215-0.0645l1.214-4.802c-0.0931-0.5371-0.2811-0.9972-0.564-1.38-0.2829-0.3831-0.6678-0.5747-1.155-0.5747-0.7376 0.00001-1.386 0.4118-1.944 1.235-0.5586 0.8236-0.9901 1.787-1.294 2.89-0.3044 1.103-0.4566 2.016-0.4565 2.739-0.00001 0.5085 0.1128 0.9686 0.3384 1.38 0.2256 0.4118 0.5747 0.6177 1.047 0.6177z"/>
            <g transform="matrix(.6479 0 0 .6479 567.1 138.2)">
                <path d="m262.8 549.9c-1.549 0-2.867-0.4193-3.951-1.258-1.085-0.8385-1.9-1.923-2.447-3.254-0.5469-1.331-0.8203-2.753-0.8203-4.266-0.00001-1.75 0.3464-3.591 1.039-5.523 0.6927-1.932 1.645-3.723 2.857-5.373s2.639-2.99 4.279-4.02c1.641-1.03 3.354-1.545 5.141-1.545 1.076 0.00002 2.051 0.3236 2.926 0.9707 0.875 0.6472 1.54 1.499 1.996 2.557l3.199-12.71c0.1823-0.8203 0.2734-1.322 0.2734-1.504-0.00002-0.6744-1.194-1.012-3.582-1.012-0.1094 0.00003-0.2096-0.0683-0.3008-0.2051-0.0912-0.1367-0.1367-0.278-0.1367-0.4238l0.2188-0.875c0.0729-0.2369 0.2278-0.3554 0.4648-0.3555l7.328-0.6016c0.3646 0.00004 0.5468 0.1823 0.5469 0.5469l-8.066 32.32c-0.00002 0.237-0.0638 0.6927-0.1914 1.367-0.1276 0.6745-0.1914 1.13-0.1914 1.367-0.00002 1.641 0.5651 2.461 1.695 2.461 0.8203 0 1.513-0.4238 2.078-1.271 0.5651-0.8476 0.9844-1.718 1.258-2.611 0.2734-0.8932 0.5742-2.042 0.9023-3.445 0.0911-0.2552 0.2278-0.3828 0.4102-0.3828h0.6562c0.1093 0.00001 0.2005 0.0547 0.2734 0.1641s0.1094 0.237 0.1094 0.3828c-0.6016 2.534-1.294 4.585-2.078 6.152-0.7839 1.568-2.033 2.352-3.746 2.352-1.258 0-2.356-0.3737-3.295-1.121-0.9388-0.7474-1.499-1.75-1.682-3.008-0.9844 1.185-2.096 2.169-3.336 2.953-1.24 0.7838-2.516 1.176-3.828 1.176zm0.1094-1.34c0.9114 0 1.818-0.2598 2.721-0.7793 0.9023-0.5195 1.727-1.18 2.475-1.982 0.7474-0.8021 1.385-1.613 1.914-2.434 0.0364 0 0.0547-0.0547 0.0547-0.1641l3.09-12.22c-0.237-1.367-0.7155-2.538-1.436-3.514-0.7201-0.9752-1.7-1.463-2.939-1.463-1.878 0.00003-3.527 1.048-4.949 3.145-1.422 2.096-2.52 4.548-3.295 7.355-0.7748 2.807-1.162 5.132-1.162 6.973-0.00001 1.294 0.2871 2.466 0.8613 3.514s1.463 1.572 2.666 1.572zm29.83 1.34c-2.625 0-4.68-0.9798-6.166-2.939-1.486-1.96-2.229-4.298-2.229-7.014 0-2.625 0.6426-5.113 1.928-7.465s3.04-4.243 5.264-5.674 4.639-2.146 7.246-2.146c1.586 0.00002 2.953 0.4193 4.102 1.258 1.148 0.8386 1.723 2.005 1.723 3.5-0.00002 3.044-1.504 4.981-4.512 5.811-3.008 0.8294-6.635 1.244-10.88 1.244h-0.1094c-0.5469 2.206-0.8477 4.129-0.9023 5.77-0.00001 1.677 0.3874 3.149 1.162 4.416 0.7747 1.267 1.937 1.9 3.486 1.9 2.206 0 4.32-0.5286 6.344-1.586 2.023-1.057 3.7-2.488 5.031-4.293 0.0364-0.0729 0.1458-0.1094 0.3281-0.1094 0.2005 0 0.3828 0.0912 0.5469 0.2734 0.164 0.1823 0.2461 0.3555 0.2461 0.5195-0.00002 0.1094-0.0182 0.1823-0.0547 0.2188-0.9479 1.294-2.078 2.415-3.391 3.363-1.313 0.9479-2.753 1.677-4.32 2.188-1.568 0.5104-3.181 0.7656-4.84 0.7656zm-3.309-14.77c2.187 0.00001 4.193-0.0957 6.016-0.2871s3.482-0.7109 4.977-1.559c1.495-0.8476 2.242-2.137 2.242-3.869-0.00002-0.6562-0.1869-1.249-0.5605-1.777-0.3737-0.5286-0.8614-0.9342-1.463-1.217-0.6016-0.2825-1.258-0.4238-1.969-0.4238-2.352 0.00003-4.307 0.8887-5.865 2.666-1.559 1.777-2.684 3.933-3.377 6.467zm32.62 28.16c-2.661-2.443-4.617-5.432-5.865-8.969-1.249-3.536-1.873-7.319-1.873-11.35-0.00001-3.372 0.3646-6.745 1.094-10.12 0.7292-3.372 1.805-6.631 3.227-9.775s3.199-6.061 5.332-8.75 4.557-4.981 7.273-6.877c0.0729-0.0729 0.164-0.1093 0.2734-0.1094h0.5469c0.2734 0.00004 0.4101 0.1459 0.4102 0.4375-0.00003 0.1823-0.0638 0.3008-0.1914 0.3555-2.479 2.06-4.658 4.498-6.535 7.314-1.878 2.816-3.432 5.865-4.662 9.146s-2.151 6.626-2.762 10.04c-0.6107 3.409-0.916 6.763-0.916 10.06-0.00001 7.656 1.905 13.63 5.715 17.91 0.1094 0.1094 0.164 0.2278 0.1641 0.3555-0.00002 0.2917-0.1367 0.4375-0.4102 0.4375h-0.5469c-0.1094-0.00001-0.2005-0.0365-0.2734-0.1094zm9.844-18.43c0-0.4193 0.0729-0.957 0.2188-1.613l4.02-16.19h-5.934c-0.1094 0.00002-0.2096-0.0683-0.3008-0.2051-0.0911-0.1367-0.1367-0.278-0.1367-0.4238l0.2188-0.875c0.0729-0.237 0.2279-0.3554 0.4648-0.3555h6.152l2.297-9.133c0.1458-0.5104 0.4147-0.9251 0.8066-1.244 0.3919-0.319 0.8522-0.4785 1.381-0.4785 0.4193 0.00003 0.7838 0.1322 1.094 0.3965 0.3099 0.2644 0.4648 0.6153 0.4648 1.053-0.00002 0.237-0.0183 0.392-0.0547 0.4648l-2.242 8.941h5.824c0.1276 0.00002 0.2324 0.0593 0.3144 0.1777 0.082 0.1185 0.123 0.2507 0.123 0.3965l-0.2188 0.9024c-0.00002 0.2552-0.1458 0.3828-0.4375 0.3828h-6.043l-4.102 16.35c-0.2552 1.057-0.3828 1.951-0.3828 2.68-0.00001 1.641 0.556 2.461 1.668 2.461 1.148 0 2.201-0.3874 3.158-1.162 0.957-0.7747 1.773-1.727 2.447-2.857 0.6745-1.13 1.24-2.288 1.695-3.473 0.0729-0.1458 0.1823-0.2187 0.3281-0.2188h0.6562c0.2734 0.00001 0.4101 0.1823 0.4102 0.5469-0.8568 2.242-2.033 4.22-3.527 5.934-1.495 1.714-3.254 2.57-5.277 2.57-1.44 0-2.648-0.4785-3.623-1.436-0.9753-0.957-1.463-2.156-1.463-3.596zm17.66 18.54c-0.2552-0.00001-0.3828-0.1458-0.3828-0.4375 0-0.2005 0.0365-0.319 0.1094-0.3555 2.516-2.078 4.721-4.548 6.617-7.41s3.45-5.902 4.662-9.119 2.119-6.517 2.721-9.898c0.6015-3.381 0.9023-6.758 0.9023-10.13-0.00002-2.169-0.1823-4.329-0.5469-6.48s-0.9753-4.206-1.832-6.166c-0.8568-1.96-1.969-3.714-3.336-5.264-0.0729-0.1458-0.1094-0.2643-0.1094-0.3555-0.00001-0.2916 0.1276-0.4375 0.3828-0.4375h0.5469c0.0911 0.00004 0.1732 0.0365 0.2461 0.1094 1.786 1.659 3.258 3.582 4.416 5.77s1.996 4.503 2.516 6.945c0.5195 2.443 0.7793 4.986 0.7793 7.629-0.00002 4.503-0.6472 8.996-1.941 13.48s-3.213 8.641-5.756 12.47c-2.543 3.828-5.61 7.009-9.201 9.543-0.0729 0.0729-0.155 0.1094-0.2461 0.1094h-0.5469z"/>
                <path d="m251 568.3h117.8" stroke="#000" stroke-width="5.075" fill="none"/>
                <path d="m292.5 617c-1.549 0-2.867-0.4193-3.951-1.258-1.085-0.8385-1.9-1.923-2.447-3.254-0.5469-1.331-0.8203-2.753-0.8203-4.266 0-1.75 0.3464-3.591 1.039-5.523 0.6927-1.932 1.645-3.723 2.857-5.373s2.639-2.99 4.279-4.02c1.641-1.03 3.354-1.545 5.141-1.545 1.076 0.00002 2.051 0.3236 2.926 0.9707 0.875 0.6472 1.54 1.499 1.996 2.557l3.199-12.71c0.1823-0.8203 0.2734-1.322 0.2734-1.504-0.00003-0.6744-1.194-1.012-3.582-1.012-0.1094 0.00004-0.2096-0.0683-0.3008-0.2051-0.0912-0.1367-0.1367-0.278-0.1367-0.4238l0.2188-0.875c0.0729-0.237 0.2278-0.3554 0.4648-0.3555l7.328-0.6016c0.3646 0.00004 0.5468 0.1823 0.5469 0.5469l-8.066 32.32c-0.00002 0.237-0.0638 0.6927-0.1914 1.367-0.1276 0.6745-0.1914 1.13-0.1914 1.367-0.00002 1.641 0.5651 2.461 1.695 2.461 0.8203 0.00001 1.513-0.4238 2.078-1.271 0.5651-0.8476 0.9844-1.718 1.258-2.611 0.2734-0.8932 0.5742-2.042 0.9023-3.445 0.0911-0.2552 0.2278-0.3828 0.4102-0.3828h0.6562c0.1094 0.00001 0.2005 0.0547 0.2734 0.1641s0.1093 0.237 0.1094 0.3828c-0.6016 2.534-1.294 4.585-2.078 6.152-0.7839 1.568-2.033 2.352-3.746 2.352-1.258 0-2.356-0.3737-3.295-1.121-0.9388-0.7474-1.499-1.75-1.682-3.008-0.9844 1.185-2.096 2.169-3.336 2.953-1.24 0.7838-2.516 1.176-3.828 1.176zm0.1094-1.34c0.9114 0.00001 1.818-0.2598 2.721-0.7793 0.9023-0.5195 1.727-1.18 2.475-1.982 0.7474-0.8021 1.385-1.613 1.914-2.434 0.0364 0.00001 0.0547-0.0547 0.0547-0.1641l3.09-12.22c-0.237-1.367-0.7155-2.538-1.436-3.514-0.7201-0.9752-1.7-1.463-2.939-1.463-1.878 0.00002-3.527 1.048-4.949 3.145-1.422 2.096-2.52 4.548-3.295 7.355-0.7748 2.807-1.162 5.132-1.162 6.973-0.00001 1.294 0.2871 2.466 0.8613 3.514s1.463 1.572 2.666 1.572zm22.29-3.691c0-0.4193 0.0729-0.957 0.2188-1.613l4.02-16.19h-5.934c-0.1094 0.00002-0.2096-0.0683-0.3008-0.2051-0.0911-0.1367-0.1367-0.278-0.1367-0.4238l0.2188-0.875c0.0729-0.237 0.2279-0.3554 0.4648-0.3555h6.152l2.297-9.133c0.1458-0.5104 0.4147-0.9251 0.8066-1.244 0.3919-0.319 0.8522-0.4785 1.381-0.4785 0.4193 0.00004 0.7838 0.1322 1.094 0.3965 0.3099 0.2644 0.4648 0.6153 0.4648 1.053-0.00001 0.237-0.0182 0.392-0.0547 0.4648l-2.242 8.941h5.824c0.1276 0.00003 0.2324 0.0593 0.3144 0.1777 0.082 0.1185 0.123 0.2507 0.123 0.3965l-0.2188 0.9023c-0.00002 0.2552-0.1458 0.3828-0.4375 0.3828h-6.043l-4.102 16.35c-0.2552 1.057-0.3828 1.951-0.3828 2.68 0 1.641 0.556 2.461 1.668 2.461 1.148 0.00001 2.201-0.3874 3.158-1.162 0.957-0.7747 1.773-1.727 2.447-2.857 0.6745-1.13 1.24-2.288 1.695-3.473 0.0729-0.1458 0.1823-0.2187 0.3281-0.2188h0.6562c0.2734 0.00001 0.4101 0.1823 0.4102 0.5469-0.8568 2.242-2.033 4.22-3.527 5.934-1.495 1.714-3.254 2.57-5.277 2.57-1.44 0-2.648-0.4785-3.623-1.436-0.9753-0.957-1.463-2.156-1.463-3.596z"/>
            </g>
        </g>
        <g>
            <path d="m374.1 597.4c-0.00002 1.827-0.3994 3.484-1.198 4.969-0.7988 1.485-1.862 2.638-3.188 3.457-0.9206 0.5671-1.947 0.9767-3.08 1.229-1.133 0.252-2.624 0.3781-4.475 0.3781h-5.091v-20.11h5.036c1.968 0.00002 3.531 0.1418 4.691 0.4253 1.16 0.2836 2.141 0.6729 2.945 1.168 1.372 0.8552 2.441 1.994 3.209 3.416 0.7672 1.422 1.151 3.11 1.151 5.063zm-2.802-0.0405c-0.00002-1.575-0.2753-2.903-0.8258-3.983-0.5506-1.08-1.372-1.931-2.464-2.552-0.7943-0.4501-1.638-0.7629-2.532-0.9384-0.8936-0.1755-1.963-0.2633-3.209-0.2633h-2.518v15.51h2.518c1.291 0 2.417-0.0945 3.378-0.2836 0.9612-0.189 1.844-0.5401 2.647-1.053 1.002-0.6391 1.753-1.481 2.254-2.525 0.5009-1.044 0.7514-2.349 0.7514-3.916z"/>
            <ellipse stroke-linejoin="round" stroke-linecap="round" rx="24.75" ry="24.69" stroke="#7d797b" cy="523.9" cx="548" stroke-width="3.326" fill="#fd5"/>
            <path d="m550 523c0.0273 0.0545 0.0182 0.1089-0.0273 0.1634l-8.697 10.4h12.03c0.0364 0 0.0683-0.009 0.0956-0.0272 0.0272-0.0181 0.041-0.0454 0.041-0.0817l0.6417-2.819c0-0.0181 0.0136-0.0408 0.041-0.0681 0.0273-0.0273 0.0683-0.0408 0.1229-0.0408h0.8192c0.1092 0 0.1638 0.0454 0.1638 0.1362v4.875c-0.00004 0.0998-0.0546 0.1498-0.1638 0.1498h-16.67c-0.091-0.00001-0.1365-0.05-0.1365-0.1498v-0.5583c0-0.0363 0.009-0.0635 0.0273-0.0817l9.093-10.91c0.0364-0.0545 0.0364-0.1089 0-0.1634l-8.642-11.68c0-0.0181-0.004-0.0318-0.0137-0.0408-0.009-0.009-0.0137-0.0227-0.0137-0.0408v-0.5855c0-0.0908 0.0455-0.1362 0.1365-0.1362h15.61c0.1092 0.00002 0.1638 0.0454 0.1638 0.1362v4.371c0 0.0999-0.0546 0.1498-0.1638 0.1498h-0.7646c-0.0546 0.00002-0.0956-0.009-0.1228-0.0273-0.0273-0.0181-0.041-0.0454-0.041-0.0817l-0.8328-3.159c-0.00005-0.0363-0.0137-0.0635-0.041-0.0817-0.0273-0.0181-0.0501-0.0272-0.0683-0.0272h-10.29l7.714 10.38z"/>
        </g>
        <g stroke="#7d797b" fill="#c1c1c2">
            <path d="m482.7 446.3v1.464h57.13 7.137 0.8971 0.0997 0.0199v-0.732-0.732s-0.01 0.00001-65.29 0z" fill-rule="evenodd" stroke-width="2.3"/>
            <g fill-rule="evenodd" transform="matrix(.6343 0 0 .6331 31.86 166.3)">
                <path d="m712.7 563.9v2.281c29.02-0.00001 43.53 0 50.78 0h6.344 0.8125 0.0937v-1.125-1.156s0.006-0.00002-58.03 0z" stroke-width="3.27"/>
                <path stroke-linejoin="round" d="m746.1 554.8 27.64 10.16-27.64 10.16c4.416-6.001 4.391-14.21 0-20.33z" stroke-width=".8885"/>
            </g>
            <path d="m482.4 599.3v1.444h57.92 7.254 0.8919 0.1189 0.0198v-0.732-0.7122s-0.008 0.00001-66.2 0z" fill-rule="evenodd" stroke-width="2.3"/>
            <g fill-rule="evenodd" transform="matrix(.6343 0 0 .6239 31.86 173.1)">
                <path d="m812.7 607.1v77.94h2.281v-68.19-8.531-1.062-0.1562h-1.125-1.156z" stroke-width="3.27"/>
                <path stroke-linejoin="round" d="m803.6 631.7 10.16-27.64 10.16 27.64c-6.001-4.416-14.21-4.391-20.33 0z" stroke-width=".8885"/>
            </g>
            <path d="m531.1 496.7v-4.653h-4.63v-1.944h4.63v-4.618h1.973v4.618h4.63v1.944h-4.63v4.653h-1.973z" stroke-width="1px"/>
            <g fill-rule="evenodd" transform="matrix(.6343 0 0 .6331 66.58 90.15)">
                <path d="m295.2 611.1s0.00001-0.002 0 54.67h2.312c0.00001-27.33 0-41 0-47.84v-5.982-0.7465-0.0945-0.009h-2.312z" stroke-width="3.27"/>
                <path stroke-linejoin="round" d="m286.1 635.7 10.16-27.64 10.16 27.64c-6.001-4.416-14.21-4.391-20.33 0z" stroke-width=".8885"/>
            </g>
            <path d="m241 482.7h-8.448v-2.444h8.448v2.444z" stroke-width="1px"/>
            <g fill-rule="evenodd" transform="matrix(-.6343 0 0 -.6331 1063 880.3)">
                <path d="m812.7 607.1v77.94h2.281v-68.19-8.531-1.062-0.1562h-1.125-1.156z" stroke-width="3.27"/>
                <path stroke-linejoin="round" d="m803.6 631.7 10.16-27.64 10.16 27.64c-6.001-4.416-14.21-4.391-20.33 0z" stroke-width=".8885"/>
            </g>
        </g>
        <path d="m423.3 540.1c-0.361 0-0.6224-0.1261-0.7844-0.3784-0.1619-0.2522-0.2429-0.5668-0.2429-0.9436 0-0.4015 0.0603-0.8422 0.181-1.322s0.2883-0.8617 0.5028-1.146c0.13-0.1688 0.2893-0.3027 0.478-0.4015s0.3842-0.1482 0.5863-0.1482c0.3589 0 0.6199 0.1277 0.7828 0.383 0.163 0.2553 0.2444 0.5724 0.2444 0.9513-0.00001 0.2594-0.0258 0.5436-0.0774 0.8524s-0.1294 0.6074-0.2336 0.8957-0.2285 0.5261-0.3728 0.7135c-0.13 0.1647-0.2893 0.2965-0.478 0.3953-0.1888 0.0988-0.3842 0.1482-0.5864 0.1482zm0.0248-0.1513c0.2084 0 0.3832-0.0736 0.5245-0.2208s0.2511-0.3294 0.3295-0.5467c0.0784-0.2172 0.1336-0.4118 0.1655-0.5837 0.032-0.1719 0.0738-0.4216 0.1253-0.749 0.0887-0.5024 0.133-0.8885 0.133-1.158 0-0.1441-0.0196-0.2738-0.0588-0.3892-0.0392-0.1153-0.1047-0.209-0.1965-0.2811s-0.2089-0.1081-0.3512-0.1081c-0.2042 0.00001-0.3749 0.0664-0.5121 0.1992s-0.2444 0.3001-0.3218 0.5019c-0.0773 0.2018-0.1279 0.366-0.1516 0.4926s-0.0676 0.3742-0.1315 0.7428c-0.0433 0.2677-0.0794 0.5122-0.1083 0.7335-0.0289 0.2214-0.0433 0.4092-0.0433 0.5637 0 0.14 0.0186 0.2703 0.0557 0.3907 0.0371 0.1205 0.1006 0.2193 0.1903 0.2965s0.2068 0.1158 0.3512 0.1158z"/>
        <path d="m424.1 506.6c0-0.0938 0.005-0.1647 0.0137-0.2128l0.3232-1.939h-0.5845l0.0275-0.1682c0.2063 0 0.3879-0.0698 0.5449-0.2093 0.157-0.1396 0.2819-0.3111 0.3748-0.5148 0.0928-0.2036 0.1599-0.4152 0.2011-0.6349h0.1822l-0.2166 1.294h0.9764l-0.0413 0.2334h-0.973l-0.33 1.96c-0.009 0.0549-0.0184 0.1418-0.0275 0.2608 0 0.1281 0.0281 0.2374 0.0842 0.3277 0.0561 0.0904 0.145 0.1356 0.2664 0.1356 0.1421 0 0.2693-0.0721 0.3816-0.2162 0.0504-0.0709 0.0854-0.1293 0.1049-0.175s0.0384-0.1052 0.0567-0.1784 0.0367-0.1338 0.055-0.1819l0.0653-0.4084h0.1822l-0.0687 0.429c-0.0206 0.1396-0.0688 0.2814-0.1444 0.4255s-0.1719 0.2614-0.2888 0.3518-0.2475 0.1356-0.3919 0.1356c-0.2384 0-0.4269-0.0612-0.5655-0.1836-0.1387-0.1224-0.208-0.2991-0.208-0.5302z"/>
        <g stroke="#7d797b" fill="#c1c1c2">
            <g font-size="10.55px" font-family="sans-serif" stroke-width="1px">
                <text style="word-spacing:0px;letter-spacing:0px" xml:space="preserve" transform="scale(1.001 .9991)" y="463.76486" x="169.68869" line-height="125%"><tspan y="463.76486" x="169.68869" stroke-width="1px">SP</tspan></text>
				<text style="word-spacing:0px;letter-spacing:0px" xml:space="preserve" transform="scale(1.001 .9991)" y="501.65048" x="217.63055" line-height="125%"><tspan y="501.65048" x="217.63055" stroke-width="1px">PV</tspan></text>
				<text style="word-spacing:0px;letter-spacing:0px" xml:space="preserve" transform="scale(1.001 .9991)" y="506.3952" x="578.40808" line-height="125%"><tspan y="506.3952" x="578.40808" stroke-width="1px">OUT</tspan></text>
            </g>
            <path d="m496.1 447.1c0.00001 18.41 0 27.62 0 32.22v4.029 0.5 0.0673h0.7334 0.7334s0.00001 0.004 0-36.82h-1.467z" fill-rule="evenodd" stroke-width="2.3"/>
            <path d="m310.9 482.8v1.444c93.03-0.00001 139.5 0 162.8 0h20.34 2.605 0.3004v-0.7122-0.732s0.0178-0.00001-186.1 0z" fill-rule="evenodd" stroke-width="2.3"/>
        </g>
    </g>

    <g transform="translate(5 0)">
        <rect   width="100"
                height="30"
                x="0"
                y="30"
                rx="10"
                ry="10"
                style="fill: #5defe1;stroke-width:1;stroke-opacity:1" data-state=''/>
        <text
                x="50"
                y="45"
                data-tag="sP"
                data-set="?"
                text-anchor="middle" alignment-baseline="central"
                style=" stroke:none;fill:#000000; fill-opacity:1;opacity:1;font-size:20pt">---</text>

    </g>
    <g transform="translate(35 130)">
        <rect   width="100"
                height="30"
                x="0"
                y="30"
                rx="10"
                ry="10"
                style="fill: #5defe1;stroke-width:1;stroke-opacity:1" data-state=''/>
        <text
                x="50"
                y="45"
                data-tag="pV"
                data-set="?"
                text-anchor="middle" alignment-baseline="central"
                style=" stroke:none;fill:#000000; fill-opacity:1;opacity:1;font-size:20pt">---</text>

    </g>
    <g transform="translate(395 110)">
        <rect   width="100"
                height="30"
                x="0"
                y="30"
                rx="10"
                ry="10"
                style="fill: #5defe1;stroke-width:1;stroke-opacity:1" data-state=''/>
        <text
                x="50"
                y="45"
                data-tag=""
                data-set="?"
                text-anchor="middle" alignment-baseline="central"
                style=" stroke:none;fill:#000000; fill-opacity:1;opacity:1;font-size:20pt">---</text>

    </g>
</svg>

