<?xml version="1.0" encoding="UTF-8" standalone="no"?>
<svg viewBox="0 0 500 500" version="1.1" xmlns="http://www.w3.org/2000/svg">
    <rect
            width="500"
            height="250"
            x="0"
            y="0"
            rx="10"
            ry="10"
            style="fill:none;stroke:#ffffff;stroke-width:1;stroke-opacity:1"/>
    <text
            x="8"
            y="20"
            data-eval="me.text(neuron.name);"
            style="stroke:none;fill-opacity:1;fill:#ffffff;opacity:1;">name
    </text>

    <g class="hmiShape" transform="translate(10,30)">
        <rect width="350" height="200" x="0" y="0" rx="10" ry="10"/>
        <g transform="translate(350,70) scale(0.5)">
            <path d="m 150,0 a 100,100 0 0 1 100,100 100,100 0 0 1 -100,100 100,100 0 0 1 -100,-100 l -50,0 0,-100 150,0 z"/>
            <circle r="50" cy="100" cx="150"/>
        </g>
        <g transform="translate(230,145) scale(0.2) rotate(-90)">
            <path
                  d="M140.367,465.067C116.9,438.4,93.434,410.667,78.5,377.6c-14.933-35.2-19.2-75.733-11.733-114.133  s24.533-74.667,49.067-105.6c-2.133,26.667,7.467,54.4,25.6,74.667c-10.667-51.2,6.4-106.667,40.533-147.2S263.034,18.133,312.1,0  c-24.533,25.6-27.733,66.133-18.133,100.267c9.6,34.133,29.867,64,48,94.933c18.133,30.933,35.2,62.933,36.267,98.133  c9.6-18.133,20.267-36.267,26.667-56.533c6.4-20.267,9.6-41.6,4.267-61.867c19.2,23.467,29.867,46.933,35.2,76.8  c5.333,29.867,4.267,60.8,1.067,90.667c-4.267,33.067-12.8,67.2-30.933,94.933c-21.333,33.067-55.467,56.533-92.8,69.333  C255.567,518.4,190.5,508.8,140.367,465.067z"
                  class="hmiValveNo"
                  data-eval="me.attr('data-value', (neuron.children.b.children.s.value > 1)?1:-1);"></path>
            <path
                  d="M221.434,504.533C308.9,538.667,395.3,435.2,347.3,355.2c0-1.067-1.067-1.067-1.067-2.133  c4.267,43.733-6.4,75.733-26.667,93.867c10.667-25.6,3.2-55.467-9.6-81.067c-12.8-24.533-30.933-46.933-44.8-70.4  c-13.867-24.533-24.533-52.267-18.133-80c-25.6,19.2-43.733,48-51.2,78.933c-7.467,30.933-3.2,65.067,10.667,93.867  c-16-11.733-27.733-30.933-28.8-51.2c-17.067,20.267-27.733,46.933-26.667,73.6C151.034,452.267,184.1,489.6,221.434,504.533z"
                  class="hmiValveNo"
                  data-eval="me.attr('data-value', (neuron.children.b.children.s.value > 0)?1:-1);"></path>
        </g>
    </g>

    <g transform="translate(370,50)">
        <rect width="100"
              height="30"
              x="0"
              y="0"
              rx="10"
              ry="10"
              style="fill: #5defe1;stroke-width:1;stroke-opacity:1" data-tag=""/>
        <text
                x="50"
                y="15"
                data-tag=""
                text-anchor="middle" alignment-baseline="central"
                style=" stroke:none;fill:#000000; fill-opacity:1;opacity:1;font-size:15pt">---
        </text>
    </g>
    <g transform="translate(370,110)">
        <rect width="100"
              height="30"
              x="0"
              y="0"
              rx="10"
              ry="10"
              style="fill: #5defe1;stroke-width:1;stroke-opacity:1" data-tag="b"/>
        <text
                x="50"
                y="15"
                data-tag="b"
                text-anchor="middle" alignment-baseline="central"
                style=" stroke:none;fill:#000000; fill-opacity:1;opacity:1;font-size:15pt">---
        </text>
    </g>
    <path class="hmiWaterPipe" d="m 5,65 h10" marker-end="url(#hmiWaterArrow)"></path>
    <g transform="translate(40,50)">
        <rect width="100"
              height="30"
              x="0"
              y="0"
              rx="10"
              ry="10"
              style="fill: #5defe1;stroke-width:1;stroke-opacity:1" data-tag="tI"/>
        <text
                x="50"
                y="15"
                data-tag="tI"
                text-anchor="middle" alignment-baseline="central"
                style=" stroke:none;fill:#000000; fill-opacity:1;opacity:1;font-size:15pt">---
        </text>
    </g>
    <path class="hmiWaterPipe" d="m 35,185 h-10" marker-end="url(#hmiWaterArrow)"></path>
    <g transform="translate(40,170)">
        <rect width="100"
              height="30"
              x="0"
              y="0"
              rx="10"
              ry="10"
              style="fill: #5defe1;stroke-width:1;stroke-opacity:1" data-tag="t"/>
        <text
                x="50"
                y="15"
                data-tag="t"
                text-anchor="middle" alignment-baseline="central"
                style=" stroke:none;fill:#000000; fill-opacity:1;opacity:1;font-size:15pt">---
        </text>
    </g>
    <g transform="translate(40,110)">
        <rect width="100"
              height="30"
              x="0"
              y="0"
              rx="10"
              ry="10"
              style="fill: #5defe1;stroke-width:1;stroke-opacity:1" data-tag="tS"/>
        <text
                x="50"
                y="15"
                data-tag="tS"
                text-anchor="middle" alignment-baseline="central"
                style=" stroke:none;fill:#000000; fill-opacity:1;opacity:1;font-size:15pt">---
        </text>
    </g>
    <g data-child="wH" transform="translate(170,200) scale(0.36)"/>
</svg>
